<?xml version="1.0" encoding="UTF-8"?>
<svg version="1.1" xmlns="http://www.w3.org/2000/svg" width="500" height="500">
<path d="M0 0 C5.61126336 0.33007432 8.6460668 1.70800172 13 5 C13.66 3.35 14.32 1.7 15 0 C21.78617455 0 25.16797336 1.98486524 30.01171875 6.703125 C35.31022875 12.82399707 36.70950125 18.95863147 36.47265625 26.98046875 C35.70798446 31.86552076 33.58182757 35.83219264 31 40 C35.98307307 38.18038538 39.32400268 35.77005112 42.125 31.140625 C44.16421745 26.15182517 43.56317579 20.60060489 41.8125 15.625 C38.52713045 10.86687859 33.77096647 8.10667584 29 5 C29.875 1.125 29.875 1.125 31 0 C37.4255661 0.131134 41.47215619 2.49114086 46 7 C50.68738072 12.96049647 52.55812186 19.44468374 52 27 C50.79617277 31.78490924 49.54104201 36.45895799 46 40 C46.88750443 40.00546844 46.88750443 40.00546844 47.79293823 40.01104736 C53.99092895 40.0530898 60.18819408 40.12258563 66.38574219 40.20751953 C68.69393634 40.23562097 71.00222478 40.25688895 73.31054688 40.27099609 C76.64241436 40.29257555 79.97316092 40.33930391 83.3046875 40.390625 C84.834991 40.39246796 84.834991 40.39246796 86.39620972 40.39434814 C94.66179744 40.56061607 102.48931812 42.04915444 108.4375 48.1875 C112.358014 53.41113939 114.38895715 59.00508494 113.9375 65.5625 C112.97440167 71.26165921 111.3792643 76.02086514 106.83984375 79.796875 C102.21783578 82.95336825 98.46870738 85.13807594 92.76953125 85.09765625 C91.96708984 85.09443359 91.16464844 85.09121094 90.33789062 85.08789062 C89.50451172 85.07951172 88.67113281 85.07113281 87.8125 85.0625 C86.96751953 85.05798828 86.12253906 85.05347656 85.25195312 85.04882812 C83.16793845 85.03705403 81.08396023 85.0191189 79 85 C78.7215625 85.75667969 78.443125 86.51335937 78.15625 87.29296875 C73.2365473 98.81105649 60.27148508 105.39737177 50 111 C66.335 111.495 66.335 111.495 83 112 C83.33 113.65 83.66 115.3 84 117 C81.46748295 119.53251705 80.61094738 119.25103701 77.10339355 119.25396729 C75.55119362 119.26242676 75.55119362 119.26242676 73.96763611 119.27105713 C72.82782791 119.26700867 71.68801971 119.26296021 70.51367188 119.25878906 C68.71851891 119.26404602 68.71851891 119.26404602 66.88710022 119.26940918 C63.59991088 119.27671799 60.31297234 119.27498435 57.02579689 119.26865101 C53.5900704 119.2635969 50.15435483 119.26828081 46.71862793 119.27142334 C40.94830393 119.27506471 35.17803108 119.27025943 29.40771484 119.26074219 C22.73096159 119.24985728 16.05433046 119.25338274 9.37758017 119.264395 C3.65100606 119.27346303 -2.07553123 119.27475554 -7.8021102 119.26951766 C-11.22495114 119.26639528 -14.64773462 119.26599592 -18.0705719 119.27259064 C-21.88498708 119.27942609 -25.6992648 119.26995924 -29.51367188 119.25878906 C-30.65348007 119.26283752 -31.79328827 119.26688599 -32.96763611 119.27105713 C-34.00243607 119.26541748 -35.03723602 119.25977783 -36.10339355 119.25396729 C-37.00599663 119.25321323 -37.9085997 119.25245918 -38.83855438 119.25168228 C-41 119 -41 119 -43 117 C-42.46428571 113.46428571 -42.46428571 113.46428571 -41 112 C-38.40846893 111.84003834 -35.8404798 111.74061303 -33.24609375 111.68359375 C-32.47064713 111.66281265 -31.6952005 111.64203156 -30.89625549 111.62062073 C-28.41009692 111.55504198 -25.92382955 111.49620201 -23.4375 111.4375 C-21.75584796 111.39432267 -20.07420706 111.35070864 -18.39257812 111.30664062 C-14.26183129 111.19935221 -10.13097464 111.09810868 -6 111 C-6.72227783 110.62705811 -7.44455566 110.25411621 -8.1887207 109.86987305 C-25.25365549 100.85091469 -37.88121661 86.40166078 -43.75 67.8125 C-45.3466732 62.00313537 -46.08073347 56.32508095 -46.375 50.3125 C-46.42398438 49.40113281 -46.47296875 48.48976562 -46.5234375 47.55078125 C-46 45 -46 45 -44.05444336 42.86767578 C-39.83034368 40.28479971 -36.46091375 40.48551926 -31.60546875 40.56640625 C-29.74413981 40.55679775 -27.8828117 40.54702703 -26.02148438 40.53710938 C-23.10528912 40.54569147 -20.18931572 40.56248616 -17.27319336 40.5847168 C-14.44601962 40.59931329 -11.6200991 40.58392969 -8.79296875 40.56640625 C-7.93124557 40.58288712 -7.0695224 40.59936798 -6.1816864 40.61634827 C0.02020031 40.56568489 4.21291074 38.99551434 9 35 C12.64577368 30.10099162 12.70009125 24.88843871 12 19 C9.51845132 11.94717743 3.98013071 8.8940386 -2 5 C-1.125 1.125 -1.125 1.125 0 0 Z M15 7 C16.35882046 10.49578393 16.35882046 10.49578393 18.015625 13.85546875 C20.88554989 20.10780511 20.45390908 26.65573962 18.1875 33 C16.99012976 35.97397374 15.7883683 38.31744755 14 41 C19.30957409 40.67820763 22.53781693 37.76917468 26 34 C29.04566961 29.05078688 29.42768621 25.05423737 28.640625 19.43359375 C27.30406495 14.35629552 24.53732497 11.13469224 20.375 8.0625 C17.97722959 6.79581697 17.97722959 6.79581697 15 7 Z M-39 48 C-39 49.32 -39 50.64 -39 52 C1.26 52 41.52 52 83 52 C83 50.68 83 49.36 83 48 C42.74 48 2.48 48 -39 48 Z M90 48 C89.90203125 49.01578125 89.8040625 50.0315625 89.703125 51.078125 C88.86525549 59.0175675 87.61650423 66.20980252 84.8046875 73.7421875 C83.88809437 75.9145005 83.88809437 75.9145005 84 78 C90.07371696 78.37186022 94.5426629 78.04351492 100 75 C104.42820025 71.17345194 104.42820025 71.17345194 106.2734375 65.86328125 C106.48770121 60.48196569 106.19034136 56.65504235 102.703125 52.40625 C99.20731187 49.5197988 94.52798851 48 90 48 Z M-38 59 C-37.01 62.63 -36.02 66.26 -35 70 C-34.67 70 -34.34 70 -34 70 C-34 66.37 -34 62.74 -34 59 C-35.32 59 -36.64 59 -38 59 Z M-27 59 C-27.14513802 63.24964127 -27.23402037 67.49864635 -27.3125 71.75 C-27.35439453 72.9565625 -27.39628906 74.163125 -27.43945312 75.40625 C-27.45556641 76.56640625 -27.47167969 77.7265625 -27.48828125 78.921875 C-27.51446533 79.99018555 -27.54064941 81.05849609 -27.56762695 82.15917969 C-27.16792374 85.74488043 -27.16792374 85.74488043 -22 89 C-22 79.1 -22 69.2 -22 59 C-23.65 59 -25.3 59 -27 59 Z M-15 59 C-15 71.54 -15 84.08 -15 97 C-11.535 98.98 -11.535 98.98 -8 101 C-8 87.14 -8 73.28 -8 59 C-10.31 59 -12.62 59 -15 59 Z M-1 59 C-1 74.18 -1 89.36 -1 105 C1.31 105.66 3.62 106.32 6 107 C6 91.16 6 75.32 6 59 C3.69 59 1.38 59 -1 59 Z M13 59 C13 75.5 13 92 13 109 C14.65 109 16.3 109 18 109 C18 92.5 18 76 18 59 C16.35 59 14.7 59 13 59 Z M26 59 C26 60.65 26 62.3 26 64 C44.15 64 62.3 64 81 64 C81.33 62.35 81.66 60.7 82 59 C63.52 59 45.04 59 26 59 Z M26 72 C26 84.21 26 96.42 26 109 C27.65 109 29.3 109 31 109 C31 96.79 31 84.58 31 72 C29.35 72 27.7 72 26 72 Z M39 72 C39 73.98 39 75.96 39 78 C51.21 78 63.42 78 76 78 C76.66 76.02 77.32 74.04 78 72 C65.13 72 52.26 72 39 72 Z M39 85 C39 92.26 39 99.52 39 107 C40.98 106.34 42.96 105.68 45 105 C45 98.4 45 91.8 45 85 C43.02 85 41.04 85 39 85 Z M52 85 C52 86.98 52 88.96 52 91 C54.24762013 91.16226135 56.49859712 91.27851131 58.75 91.375 C60.62945312 91.47941406 60.62945312 91.47941406 62.546875 91.5859375 C63.68640625 91.39257812 64.8259375 91.19921875 66 91 C67.32 89.02 68.64 87.04 70 85 C64.06 85 58.12 85 52 85 Z M52 98 C52.33 98.99 52.66 99.98 53 101 C53.99 100.01 54.98 99.02 56 98 C54.68 98 53.36 98 52 98 Z " fill="#94603C" transform="translate(223,149)"/>
<path d="M0 0 C1.0263858 -0.00426498 2.05277161 -0.00852997 3.11026001 -0.01292419 C4.24071747 -0.01247101 5.37117493 -0.01201782 6.53588867 -0.0115509 C8.31641129 -0.01658882 8.31641129 -0.01658882 10.13290405 -0.02172852 C13.39315643 -0.0296154 16.65337065 -0.03290691 19.91363144 -0.0335443 C22.63249522 -0.03449271 25.35135285 -0.03817012 28.07021427 -0.0417164 C34.48227816 -0.04986339 40.89432801 -0.05230037 47.30639648 -0.05158997 C53.92861045 -0.05098873 60.55074307 -0.06154899 67.17293644 -0.07733363 C72.85279507 -0.09039143 78.53262704 -0.09577462 84.21250057 -0.09513456 C87.60740453 -0.0948791 91.00223619 -0.09775664 94.39712524 -0.10831261 C98.18042861 -0.11805441 101.96351976 -0.11525764 105.74682617 -0.10920715 C106.87728363 -0.11482666 108.00774109 -0.12044617 109.17245483 -0.12623596 C110.71203354 -0.11994423 110.71203354 -0.11994423 112.28271484 -0.11352539 C113.62555794 -0.11434254 113.62555794 -0.11434254 114.99552917 -0.1151762 C117.14135742 0.13371277 117.14135742 0.13371277 119.14135742 2.13371277 C118.58580187 6.68926832 118.58580187 6.68926832 117.14135742 8.13371277 C115.56677249 8.23616104 113.98760401 8.2689094 112.40969849 8.27415466 C111.38613251 8.27986481 110.36256653 8.28557495 109.3079834 8.29145813 C107.60926086 8.29313492 107.60926086 8.29313492 105.8762207 8.29484558 C104.69095795 8.29981049 103.50569519 8.30477539 102.28451538 8.30989075 C99.02414076 8.32202431 95.76380205 8.32946409 92.50340891 8.33390141 C90.46796673 8.33682871 88.43253024 8.34093287 86.39709091 8.34540558 C80.03310551 8.35908676 73.66913303 8.36875021 67.30513394 8.37260747 C59.95066717 8.37708909 52.59638617 8.394639 45.2419759 8.42360806 C39.56297107 8.44520361 33.88401858 8.45531062 28.2049731 8.45664859 C24.81053784 8.45769821 21.41627707 8.46363897 18.02188492 8.4814682 C14.23620628 8.49844605 10.45098403 8.49666851 6.6652832 8.49015808 C5.53684998 8.49937286 4.40841675 8.50858765 3.24578857 8.51808167 C1.70198013 8.50972794 1.70198013 8.50972794 0.12698364 8.50120544 C-0.76862211 8.502672 -1.66422787 8.50413857 -2.58697319 8.50564957 C-5.31759267 8.0585696 -6.24028655 7.3478253 -7.85864258 5.13371277 C-7.67114258 3.00871277 -7.67114258 3.00871277 -6.85864258 1.13371277 C-4.38930806 -0.10095449 -2.76240635 0.00517115 0 0 Z " fill="#96613B" transform="translate(187.858642578125,272.8662872314453)"/>
<path d="M0 0 C3.71484375 0.46875 3.71484375 0.46875 6.1484375 3.3125 C6.84294993 4.51632154 7.51039099 5.7360982 8.15234375 6.96875 C8.50232422 7.58878906 8.85230469 8.20882813 9.21289062 8.84765625 C10.07053744 10.3749725 10.89595569 11.92030713 11.71484375 13.46875 C11.80572266 12.18677734 11.80572266 12.18677734 11.8984375 10.87890625 C11.98222656 9.77417969 12.06601563 8.66945313 12.15234375 7.53125 C12.23355469 6.42910156 12.31476563 5.32695312 12.3984375 4.19140625 C12.71484375 1.46875 12.71484375 1.46875 13.71484375 0.46875 C16.71484375 0.34375 16.71484375 0.34375 19.71484375 0.46875 C20.71484375 1.46875 20.71484375 1.46875 20.82836914 4.06079102 C20.82313232 5.18670654 20.81789551 6.31262207 20.8125 7.47265625 C20.80927734 8.68759766 20.80605469 9.90253906 20.80273438 11.15429688 C20.79435547 12.43369141 20.78597656 13.71308594 20.77734375 15.03125 C20.77283203 16.31451172 20.76832031 17.59777344 20.76367188 18.91992188 C20.7518392 22.10291022 20.73535443 25.28580762 20.71484375 28.46875 C17.79024859 28.76366716 15.56404384 28.9858071 12.71484375 28.46875 C10.18359375 25.84375 10.18359375 25.84375 8.21484375 22.46875 C7.54453125 21.355 6.87421875 20.24125 6.18359375 19.09375 C5.69890625 18.2275 5.21421875 17.36125 4.71484375 16.46875 C4.38484375 20.42875 4.05484375 24.38875 3.71484375 28.46875 C1.07484375 28.46875 -1.56515625 28.46875 -4.28515625 28.46875 C-4.31401963 23.98959672 -4.33190812 19.51046709 -4.34765625 15.03125 C-4.35603516 13.75185547 -4.36441406 12.47246094 -4.37304688 11.15429688 C-4.37626953 9.93935547 -4.37949219 8.72441406 -4.3828125 7.47265625 C-4.38804932 6.34674072 -4.39328613 5.2208252 -4.39868164 4.06079102 C-4.22970634 0.20270331 -3.92885635 0.56059782 0 0 Z " fill="#945F3A" transform="translate(142.28515625,293.53125)"/>
<path d="M0 0 C7 0 7 0 8.62084961 1.28515625 C8.96124268 1.87167969 9.30163574 2.45820313 9.65234375 3.0625 C10.03583984 3.69414062 10.41933594 4.32578125 10.81445312 4.9765625 C11.18505859 5.64429688 11.55566406 6.31203125 11.9375 7 C12.33517578 7.66773438 12.73285156 8.33546875 13.14257812 9.0234375 C14.11807693 10.66885717 15.06220268 12.33280476 16 14 C16.33 9.38 16.66 4.76 17 0 C19.31 0 21.62 0 24 0 C24 9.24 24 18.48 24 28 C21.36 28 18.72 28 16 28 C13.96566594 25.71451359 12.83946988 24.14051234 11.5 21.5 C11.15453125 20.87996094 10.8090625 20.25992187 10.453125 19.62109375 C9.60818036 18.09549927 8.80028512 16.54948821 8 15 C7.67 19.29 7.34 23.58 7 28 C4.69 28 2.38 28 0 28 C0 18.76 0 9.52 0 0 Z " fill="#94603D" transform="translate(170,294)"/>
<path d="M0 0 C7 0 7 0 8.62084961 1.28515625 C8.96124268 1.87167969 9.30163574 2.45820313 9.65234375 3.0625 C10.03583984 3.69414062 10.41933594 4.32578125 10.81445312 4.9765625 C11.18505859 5.64429688 11.55566406 6.31203125 11.9375 7 C12.33517578 7.66773438 12.73285156 8.33546875 13.14257812 9.0234375 C14.11807693 10.66885717 15.06220268 12.33280476 16 14 C16.33 9.38 16.66 4.76 17 0 C19.31 0 21.62 0 24 0 C24 9.24 24 18.48 24 28 C21.36 28 18.72 28 16 28 C13.46875 25.375 13.46875 25.375 11.5 22 C10.8296875 20.88625 10.159375 19.7725 9.46875 18.625 C8.9840625 17.75875 8.499375 16.8925 8 16 C7.67 19.96 7.34 23.92 7 28 C4.69 28 2.38 28 0 28 C0 18.76 0 9.52 0 0 Z " fill="#92603E" transform="translate(366,294)"/>
<path d="M0 0 C4.38544865 2.19272433 7.23315916 4.38658225 9 9 C9.65862967 14.31782472 9.65060637 18.59869397 7.375 23.5 C3.67255382 27.39731176 0.29119448 29.13302511 -5.0625 29.375 C-10.45404128 28.86151988 -12.71648251 27.46178381 -16.25 23.4375 C-19.43158166 19.00601126 -19.66853991 15.36638791 -19 10 C-14.45385968 1.5347732 -9.48242629 -1.16706785 0 0 Z M-9.3125 8.5625 C-11.64226201 11.92771179 -11.57289582 13.98972923 -11 18 C-9.45714369 20.54331238 -9.45714369 20.54331238 -7 22 C-4.11780274 22.49208246 -2.71846913 22.46187301 -0.25 20.875 C1.53025526 18.20461711 1.87201588 16.19960304 2 13 C0.86220128 10.67268444 -0.16840714 8.83159286 -2 7 C-5.20957777 6.56627327 -6.59999199 6.72972432 -9.3125 8.5625 Z " fill="#916140" transform="translate(219,294)"/>
<path d="M0 0 C5.11762818 2.65358498 8.17705942 5.53117826 10 11 C10.39614654 16.24894167 9.86557317 19.55342094 7 24 C2.641611 27.93318031 0.03949018 29.31865018 -5.90625 29.2109375 C-10.52980365 28.74513172 -13.24185223 26.79805028 -16.375 23.5 C-18.65244651 18.59473058 -18.78398148 14.32157127 -18 9 C-14.18784346 1.09330495 -8.43456126 -1.35369502 0 0 Z M-9.375 9.0625 C-11.49595244 12.89652941 -11.15783246 14.83180316 -10 19 C-9.03882095 21.12870693 -9.03882095 21.12870693 -7 22 C-3.42243314 22.00082535 -3.42243314 22.00082535 0 21 C2.48038907 17.2794164 2.46337203 15.40203429 2 11 C0.02929117 8.15342058 -1.12353956 7.1972036 -4.5 6.4375 C-7.18901068 6.83504853 -7.18901068 6.83504853 -9.375 9.0625 Z " fill="#93603D" transform="translate(350,294)"/>
<path d="M0 0 C1.4540625 0.0309375 1.4540625 0.0309375 2.9375 0.0625 C5.88928941 6.34484826 8.65531398 12.68803327 11.25 19.125 C11.51635254 19.77992432 11.78270508 20.43484863 12.05712891 21.10961914 C13.9375 25.82042407 13.9375 25.82042407 13.9375 28.0625 C11.2975 28.0625 8.6575 28.0625 5.9375 28.0625 C5.4425 25.5875 5.4425 25.5875 4.9375 23.0625 C1.6375 23.0625 -1.6625 23.0625 -5.0625 23.0625 C-5.3925 24.7125 -5.7225 26.3625 -6.0625 28.0625 C-8.7025 28.0625 -11.3425 28.0625 -14.0625 28.0625 C-13.43636216 24.41877114 -12.4356497 21.21375221 -11.03125 17.796875 C-10.63292969 16.82492187 -10.23460937 15.85296875 -9.82421875 14.8515625 C-9.19966797 13.34722656 -9.19966797 13.34722656 -8.5625 11.8125 C-8.14613281 10.79414063 -7.72976563 9.77578125 -7.30078125 8.7265625 C-3.73685761 0.0762624 -3.73685761 0.0762624 0 0 Z M-1.0625 12.0625 C-1.3925 13.7125 -1.7225 15.3625 -2.0625 17.0625 C-0.7425 17.0625 0.5775 17.0625 1.9375 17.0625 C1.6075 15.4125 1.2775 13.7625 0.9375 12.0625 C0.2775 12.0625 -0.3825 12.0625 -1.0625 12.0625 Z " fill="#955F3A" transform="translate(276.0625,293.9375)"/>
<path d="M0 0 C2.31 0 4.62 0 7 0 C13 11.73786408 13 11.73786408 13 16 C13.66 16 14.32 16 15 16 C15.0825 15.21625 15.165 14.4325 15.25 13.625 C16.24365069 8.822355 18.08713518 4.50190511 20 0 C22.64 0 25.28 0 28 0 C27.37386216 3.64372886 26.3731497 6.84874779 24.96875 10.265625 C24.57042969 11.23757813 24.17210937 12.20953125 23.76171875 13.2109375 C23.13716797 14.71527344 23.13716797 14.71527344 22.5 16.25 C21.87544922 17.77753906 21.87544922 17.77753906 21.23828125 19.3359375 C18.13722364 26.86277636 18.13722364 26.86277636 17 28 C15.00041636 28.04080783 12.99954746 28.04254356 11 28 C7.8912729 22.15394241 5.16752372 16.1971782 2.6875 10.0625 C2.42114746 9.4120874 2.15479492 8.7616748 1.88037109 8.09155273 C0.74224188 5.23128383 0 3.10872799 0 0 Z " fill="#95603A" transform="translate(232,294)"/>
<path d="M0 0 C6.6 0 13.2 0 20 0 C20 2.31 20 4.62 20 7 C17.69 7 15.38 7 13 7 C13 13.93 13 20.86 13 28 C10.69 28 8.38 28 6 28 C6 21.07 6 14.14 6 7 C4.02 7 2.04 7 0 7 C0 4.69 0 2.38 0 0 Z " fill="#965F3A" transform="translate(293,294)"/>
<path d="M0 0 C40.92 0 81.84 0 124 0 C123.34 0.99 122.68 1.98 122 3 C119.84858513 3.36914349 119.84858513 3.36914349 117.12789917 3.36076355 C116.09862305 3.36488754 115.06934692 3.36901154 114.00888062 3.3732605 C112.87528107 3.36247467 111.74168152 3.35168884 110.57373047 3.34057617 C109.38350281 3.34101425 108.19327515 3.34145233 106.96697998 3.34190369 C103.69845455 3.34016867 100.43031177 3.32509764 97.16186285 3.30418181 C93.74790953 3.28545959 90.33394913 3.2836681 86.91995239 3.28010559 C80.45299051 3.27077197 73.98618033 3.24614053 67.51928532 3.21605712 C60.15785265 3.18255394 52.79641283 3.16603741 45.43492293 3.15097082 C30.28986402 3.119592 15.14494716 3.06680608 0 3 C0 2.01 0 1.02 0 0 Z " fill="#705745" transform="translate(183,278)"/>
<path d="M0 0 C2.31 0 4.62 0 7 0 C7 9.24 7 18.48 7 28 C4.69 28 2.38 28 0 28 C0 18.76 0 9.52 0 0 Z " fill="#94613D" transform="translate(318,294)"/>
<path d="M0 0 C2.31 0 4.62 0 7 0 C7 9.24 7 18.48 7 28 C4.69 28 2.38 28 0 28 C0 18.76 0 9.52 0 0 Z " fill="#96613A" transform="translate(124,294)"/>
<path d="M0 0 C0.83265381 0.00523682 1.66530762 0.01047363 2.52319336 0.01586914 C3.42231445 0.0190918 4.32143555 0.02231445 5.24780273 0.02563477 C6.66609375 0.03820312 6.66609375 0.03820312 8.11303711 0.05102539 C9.06243164 0.05553711 10.01182617 0.06004883 10.98999023 0.06469727 C13.34356776 0.07652429 15.69702188 0.09300514 18.05053711 0.11352539 C18.05053711 0.44352539 18.05053711 0.77352539 18.05053711 1.11352539 C16.00974706 1.31033749 13.96783704 1.4955537 11.92553711 1.67602539 C10.22010742 1.83264648 10.22010742 1.83264648 8.48022461 1.99243164 C5.16155718 2.10960555 2.29426851 1.77903259 -0.94946289 1.11352539 C-0.94946289 2.76352539 -0.94946289 4.41352539 -0.94946289 6.11352539 C14.627632 6.05300817 30.20455754 5.97552065 45.78145981 5.87781048 C53.01404107 5.83283823 60.24657294 5.79342695 67.47924805 5.76708984 C73.78300152 5.74412123 80.08659885 5.71073614 86.39022851 5.66482383 C89.72825374 5.64087569 93.06598011 5.6237112 96.40410614 5.61591148 C100.12990971 5.60632224 103.85514567 5.57832394 107.58081055 5.54589844 C108.68851807 5.54733353 109.79622559 5.54876862 110.9375 5.55024719 C112.46029572 5.53143997 112.46029572 5.53143997 114.01385498 5.51225281 C114.89508907 5.50764384 115.77632317 5.50303488 116.68426132 5.49828625 C119.51310143 5.03831157 120.91750242 3.98059284 123.05053711 2.11352539 C122.17553711 5.98852539 122.17553711 5.98852539 121.05053711 7.11352539 C119.46095801 7.21383684 117.8669235 7.24428397 116.27418518 7.24723816 C114.72404724 7.25363564 114.72404724 7.25363564 113.14259338 7.26016235 C111.42748817 7.25948257 111.42748817 7.25948257 109.67773438 7.25878906 C108.48111176 7.26214767 107.28448914 7.26550629 106.05160522 7.26896667 C102.7602935 7.27686238 99.46904483 7.28014561 96.17772794 7.28078246 C93.43406108 7.28172997 90.69040032 7.28540644 87.9467358 7.28895456 C81.47571788 7.29710664 75.00471387 7.29953811 68.53369141 7.29882812 C61.84958254 7.29822716 55.16555433 7.30878102 48.48146588 7.32457179 C42.75067245 7.33763 37.01990545 7.34301275 31.28909725 7.34237272 C27.86287953 7.34211722 24.43673343 7.34499683 21.01053047 7.35555077 C17.19123278 7.36699365 13.37204646 7.36249549 9.55273438 7.35644531 C7.84066551 7.36487457 7.84066551 7.36487457 6.0940094 7.37347412 C4.53964172 7.36718239 4.53964172 7.36718239 2.95387268 7.36076355 C1.59801984 7.3615807 1.59801984 7.3615807 0.21477604 7.36241436 C-1.94946289 7.11352539 -1.94946289 7.11352539 -3.94946289 5.11352539 C-3.20294708 0.18652103 -3.20294708 0.18652103 0 0 Z " fill="#8B6449" transform="translate(183.949462890625,260.886474609375)"/>
<path d="M0 0 C1.02927612 -0.00137466 2.05855225 -0.00274933 3.11901855 -0.00416565 C4.81941788 0.00122726 4.81941788 0.00122726 6.5541687 0.00672913 C7.74439636 0.0065831 8.93462402 0.00643707 10.16091919 0.00628662 C13.42930857 0.00686493 16.69765544 0.01188878 19.96603632 0.01886058 C23.3800046 0.02510135 26.79397367 0.02569849 30.20794678 0.02688599 C36.6748439 0.02999716 43.14172416 0.03820768 49.60861385 0.04823548 C56.97006559 0.05940323 64.33151813 0.06490874 71.69297624 0.06993091 C86.83795995 0.08039046 101.98292788 0.09798579 117.12789917 0.12025452 C117.12789917 0.45025452 117.12789917 0.78025452 117.12789917 1.12025452 C116.24994186 1.12660243 116.24994186 1.12660243 115.35424805 1.13307858 C101.08944946 1.2365409 86.8246974 1.34520139 72.5599823 1.45959377 C65.66157669 1.51478947 58.7631659 1.56824841 51.86471558 1.61756897 C45.20572124 1.66518248 38.546782 1.71770175 31.8878479 1.77319527 C29.34900153 1.7935548 26.8101415 1.81227821 24.27127075 1.82932854 C20.71171132 1.85351463 17.15224519 1.88354934 13.59274292 1.91493225 C12.02288383 1.92356544 12.02288383 1.92356544 10.42131042 1.93237305 C4.90337842 1.98756685 -0.41220745 2.31016633 -5.87210083 3.12025452 C-5.87210083 3.78025452 -5.87210083 4.44025452 -5.87210083 5.12025452 C-6.53210083 5.12025452 -7.19210083 5.12025452 -7.87210083 5.12025452 C-7.49710083 3.18275452 -7.49710083 3.18275452 -6.87210083 1.12025452 C-4.39667647 -0.11745766 -2.76927847 -0.0028432 0 0 Z " fill="#815E46" transform="translate(187.87210083007813,272.87974548339844)"/>
<path d="M0 0 C3.16285735 1.08623384 6.1546087 2.22834127 9 4 C10.0625 7.25 10.0625 7.25 10 10 C10.66 10 11.32 10 12 10 C12.05392397 12.77109307 12.09363455 15.54113818 12.125 18.3125 C12.14175781 19.09818359 12.15851563 19.88386719 12.17578125 20.69335938 C12.18222656 21.45068359 12.18867188 22.20800781 12.1953125 22.98828125 C12.20578613 23.68477783 12.21625977 24.38127441 12.22705078 25.09887695 C12 27 12 27 10 30 C9.34 29.67 8.68 29.34 8 29 C6.67132682 24.19767146 6.65359459 19.20414081 6.37890625 14.25390625 C5.86857582 9.8713779 5.37449382 6.13193609 1.875 3.25 C1.25625 2.8375 0.6375 2.425 0 2 C0 1.34 0 0.68 0 0 Z " fill="#976039" transform="translate(261,156)"/>
<path d="M0 0 C0.99 0.66 1.98 1.32 3 2 C-0.2889146 4.19260973 -1.18646287 4.2416602 -4.99235535 4.20254517 C-6.02300613 4.19688034 -7.05365692 4.19121552 -8.11553955 4.18537903 C-9.81054596 4.16056709 -9.81054596 4.16056709 -11.53979492 4.13525391 C-13.32535545 4.12106163 -13.32535545 4.12106163 -15.14698792 4.10658264 C-18.411299 4.0786564 -21.67536117 4.04174125 -24.93953109 4.00085878 C-28.3507591 3.96024992 -31.76208433 3.93109122 -35.17341614 3.90072632 C-41.63328843 3.8414815 -48.09300683 3.77191525 -54.55273372 3.69865549 C-61.90688082 3.61575358 -69.26112535 3.54433539 -76.61540067 3.47388959 C-91.74374392 3.32871912 -106.87190391 3.16910192 -122 3 C-122 2.67 -122 2.34 -122 2 C-81.74 2 -41.48 2 0 2 C0 1.34 0 0.68 0 0 Z " fill="#905B34" transform="translate(306,199)"/>
<path d="M0 0 C3 0.125 3 0.125 4 1.125 C4.08758003 3.12464982 4.10696576 5.1273611 4.09765625 7.12890625 C4.09443359 8.34384766 4.09121094 9.55878906 4.08789062 10.81054688 C4.07951172 12.08994141 4.07113281 13.36933594 4.0625 14.6875 C4.05798828 15.97076172 4.05347656 17.25402344 4.04882812 18.57617188 C4.03699545 21.75916022 4.02051068 24.94205762 4 28.125 C3.34 27.795 2.68 27.465 2 27.125 C2.33 18.875 2.66 10.625 3 2.125 C1.02 2.125 -0.96 2.125 -3 2.125 C-3 4.765 -3 7.405 -3 10.125 C-2.34 10.125 -1.68 10.125 -1 10.125 C-0.63076923 14.67884615 -0.63076923 14.67884615 -2.5 16.9375 C-2.995 17.329375 -3.49 17.72125 -4 18.125 C-4.33 17.465 -4.66 16.805 -5 16.125 C-7.02463255 15.47286708 -7.02463255 15.47286708 -9 15.125 C-9.33 16.445 -9.66 17.765 -10 19.125 C-10.66 18.135 -11.32 17.145 -12 16.125 C-12.33 20.085 -12.66 24.045 -13 28.125 C-13.66 27.795 -14.32 27.465 -15 27.125 C-14.67 22.175 -14.34 17.225 -14 12.125 C-11.525 13.115 -11.525 13.115 -9 14.125 C-8.34 12.805 -7.68 11.485 -7 10.125 C-6.01 11.61 -6.01 11.61 -5 13.125 C-4.93941406 12.27035156 -4.87882813 11.41570312 -4.81640625 10.53515625 C-4.73261719 9.43042969 -4.64882812 8.32570313 -4.5625 7.1875 C-4.48128906 6.08535156 -4.40007812 4.98320312 -4.31640625 3.84765625 C-3.87527338 0.05173513 -3.87034376 0.16126432 0 0 Z " fill="#7E5A40" transform="translate(159,293.875)"/>
<path d="M0 0 C2.31 0 4.62 0 7 0 C7 9.24 7 18.48 7 28 C6.67 28 6.34 28 6 28 C5.67 23.05 5.34 18.1 5 13 C3.68 13 2.36 13 1 13 C0.67 13.66 0.34 14.32 0 15 C0 10.05 0 5.1 0 0 Z " fill="#936545" transform="translate(187,294)"/>
<path d="M0 0 C6.6 0 13.2 0 20 0 C20 2.31 20 4.62 20 7 C17.69 7 15.38 7 13 7 C13.639375 6.7525 14.27875 6.505 14.9375 6.25 C17.49019039 5.03378366 17.49019039 5.03378366 18 1 C13.05 1.33 8.1 1.66 3 2 C2.67 2.99 2.34 3.98 2 5 C3.65 5 5.3 5 7 5 C7.33 4.34 7.66 3.68 8 3 C10 4.375 10 4.375 12 6 C12 6.66 12 7.32 12 8 C10.68 8.33 9.36 8.66 8 9 C7.67 15.27 7.34 21.54 7 28 C6.67 28 6.34 28 6 28 C6 21.07 6 14.14 6 7 C4.02 7 2.04 7 0 7 C0 4.69 0 2.38 0 0 Z " fill="#8F6244" transform="translate(293,294)"/>
<path d="M0 0 C2 2 2 2 2.375 5.4375 C2 9 2 9 0.375 11.0625 C-2.96810888 12.38214824 -4.78946147 11.38636891 -8 10 C-9.125 4.375 -9.125 4.375 -8 1 C-5.23749964 -0.38125018 -3.05268901 -0.19079306 0 0 Z M-4 2 C-4.66 2.66 -5.32 3.32 -6 4 C-5.67958603 6.60280568 -5.67958603 6.60280568 -5 9 C-3.68 8.67 -2.36 8.34 -1 8 C-1 6.35 -1 4.7 -1 3 C-1.99 2.67 -2.98 2.34 -4 2 Z " fill="#8B654B" transform="translate(211,334)"/>
<path d="M0 0 C3.0625 0.375 3.0625 0.375 5 2 C6.40307059 5.13627543 5.88137495 7.09950019 5.0625 10.375 C-0.22259407 12.65719971 -0.22259407 12.65719971 -3.3125 11.4375 C-5.7028141 8.4036398 -5.34624575 6.12183601 -4.9375 2.375 C-2.9375 0.375 -2.9375 0.375 0 0 Z M-0.9375 2.375 C-2.23383621 3.44145115 -2.23383621 3.44145115 -2 5.9375 C-1.979375 6.741875 -1.95875 7.54625 -1.9375 8.375 C-0.6175 8.705 0.7025 9.035 2.0625 9.375 C2.3925 7.725 2.7225 6.075 3.0625 4.375 C1.7425 3.715 0.4225 3.055 -0.9375 2.375 Z " fill="#896549" transform="translate(293.9375,333.625)"/>
<path d="M0 0 C2.31 0 4.62 0 7 0 C7 9.24 7 18.48 7 28 C6.67 28 6.34 28 6 28 C5.80374901 24.04204914 5.61948018 20.08363065 5.4375 16.125 C5.38142578 14.99707031 5.32535156 13.86914062 5.26757812 12.70703125 C5.19506836 11.09248047 5.19506836 11.09248047 5.12109375 9.4453125 C5.0739624 8.45031738 5.02683105 7.45532227 4.97827148 6.43017578 C5 4 5 4 6 2 C4.35 2.33 2.7 2.66 1 3 C1 10.59 1 18.18 1 26 C1.66 26 2.32 26 3 26 C3 26.66 3 27.32 3 28 C2.01 28 1.02 28 0 28 C0 18.76 0 9.52 0 0 Z " fill="#8B6449" transform="translate(124,294)"/>
<path d="M0 0 C0.99 0 1.98 0 3 0 C3 1.32 3 2.64 3 4 C3.99 4 4.98 4 6 4 C6 2.68 6 1.36 6 0 C6.99 0 7.98 0 9 0 C9 3.63 9 7.26 9 11 C8.01 11 7.02 11 6 11 C6 9.68 6 8.36 6 7 C5.01 7 4.02 7 3 7 C3 8.32 3 9.64 3 11 C2.01 11 1.02 11 0 11 C0 7.37 0 3.74 0 0 Z " fill="#91674C" transform="translate(275,334)"/>
<path d="M0 0 C3.625 -0.1875 3.625 -0.1875 7 0 C7.33 1.32 7.66 2.64 8 4 C5.69 3.67 3.38 3.34 1 3 C1.33 4.65 1.66 6.3 2 8 C3.98 7.67 5.96 7.34 8 7 C7.67 8.32 7.34 9.64 7 11 C4.02211118 11.90991047 2.56502006 12.25960381 -0.3125 10.9375 C-2 9 -2 9 -2.375 6 C-2 3 -2 3 0 0 Z " fill="#8A6953" transform="translate(190,334)"/>
<path d="M0 0 C1.65 0 3.3 0 5 0 C5.33 0.99 5.66 1.98 6 3 C4.68 3.33 3.36 3.66 2 4 C3.32 4.33 4.64 4.66 6 5 C6.6875 6.8125 6.6875 6.8125 7 9 C5.875 10.8125 5.875 10.8125 4 12 C1.3125 11.6875 1.3125 11.6875 -1 11 C-1.33 10.01 -1.66 9.02 -2 8 C-1.01 7.67 -0.02 7.34 1 7 C1 7.66 1 8.32 1 9 C1.66 8.67 2.32 8.34 3 8 C1.68 7.01 0.36 6.02 -1 5 C-0.67 3.35 -0.34 1.7 0 0 Z " fill="#96644B" transform="translate(264,334)"/>
<path d="M0 0 C2.64 0 5.28 0 8 0 C8 0.66 8 1.32 8 2 C6.35 2 4.7 2 3 2 C3 2.66 3 3.32 3 4 C4.32 4 5.64 4 7 4 C7 4.99 7 5.98 7 7 C5.68 7 4.36 7 3 7 C3 7.66 3 8.32 3 9 C4.65 9 6.3 9 8 9 C8 9.66 8 10.32 8 11 C5.36 11 2.72 11 0 11 C0 7.37 0 3.74 0 0 Z " fill="#8D6A50" transform="translate(243,334)"/>
<path d="M0 0 C2.33294775 -0.04241723 4.66702567 -0.04092937 7 0 C8 1 8 1 8.0625 3.5625 C8.041875 4.366875 8.02125 5.17125 8 6 C6.35 6.33 4.7 6.66 3 7 C3 8.32 3 9.64 3 11 C2.01 11 1.02 11 0 11 C0 7.37 0 3.74 0 0 Z M3 2 C3 2.66 3 3.32 3 4 C3.66 3.67 4.32 3.34 5 3 C4.34 2.67 3.68 2.34 3 2 Z " fill="#90603E" transform="translate(304,334)"/>
<path d="M0 0 C10.68430493 -0.76681614 10.68430493 -0.76681614 13.91015625 1.11328125 C15.25 2.5 15.25 2.5 17 5 C17.66 4.01 18.32 3.02 19 2 C19.66 3.65 20.32 5.3 21 7 C18.36 7 15.72 7 13 7 C12.67 5.35 12.34 3.7 12 2 C8.7 2 5.4 2 2 2 C1.67 3.65 1.34 5.3 1 7 C-0.0625 5.1875 -0.0625 5.1875 -1 3 C-0.67 2.01 -0.34 1.02 0 0 Z " fill="#8D6141" transform="translate(269,315)"/>
<path d="M0 0 C2.97 0 5.94 0 9 0 C9 0.66 9 1.32 9 2 C7.02 2 5.04 2 3 2 C3 2.66 3 3.32 3 4 C4.65 4 6.3 4 8 4 C8 4.99 8 5.98 8 7 C6.35 7 4.7 7 3 7 C3 8.32 3 9.64 3 11 C2.01 11 1.02 11 0 11 C0 7.37 0 3.74 0 0 Z " fill="#92674B" transform="translate(230,334)"/>
<path d="M0 0 C2.64 0 5.28 0 8 0 C8 0.66 8 1.32 8 2 C6.35 2.33 4.7 2.66 3 3 C4.32 3.33 5.64 3.66 7 4 C7 4.99 7 5.98 7 7 C5.35 7 3.7 7 2 7 C2 8.32 2 9.64 2 11 C1.34 11 0.68 11 0 11 C0 7.37 0 3.74 0 0 Z " fill="#966649" transform="translate(218,334)"/>
<path d="M0 0 C6.6 0 13.2 0 20 0 C20 2.31 20 4.62 20 7 C17.69 7 15.38 7 13 7 C13.639375 6.7525 14.27875 6.505 14.9375 6.25 C17.49019039 5.03378366 17.49019039 5.03378366 18 1 C12.39 1 6.78 1 1 1 C1 2.65 1 4.3 1 6 C2.65 6 4.3 6 6 6 C6 6.33 6 6.66 6 7 C4.02 7 2.04 7 0 7 C0 4.69 0 2.38 0 0 Z " fill="#8B684F" transform="translate(293,294)"/>
<path d="M0 0 C2.64 0 5.28 0 8 0 C7.67 1.65 7.34 3.3 7 5 C6.67 4.01 6.34 3.02 6 2 C4.35 2 2.7 2 1 2 C0.67 4.64 0.34 7.28 0 10 C-0.66 10 -1.32 10 -2 10 C-2.33 11.32 -2.66 12.64 -3 14 C-3.66 13.67 -4.32 13.34 -5 13 C-3.35 8.71 -1.7 4.42 0 0 Z " fill="#855F44" transform="translate(252,294)"/>
<path d="M0 0 C3.83775737 3.83775737 5.17688553 9.73206741 6 15 C6.66 15 7.32 15 8 15 C8.66 17.64 9.32 20.28 10 23 C4.78562763 18.3329087 1.74426543 10.65992256 0 4 C0 2.68 0 1.36 0 0 Z " fill="#885F42" transform="translate(179,212)"/>
<path d="M0 0 C0.33 0 0.66 0 1 0 C0.73040144 5.82332891 -0.22901967 10.20392725 -3.16015625 15.2734375 C-4.21871063 17.12963029 -4.21871063 17.12963029 -4 20 C-5.32 19.67 -6.64 19.34 -8 19 C-6.6875 15.5625 -6.6875 15.5625 -5 12 C-4.01 11.67 -3.02 11.34 -2 11 C-1.24572703 6.02093741 -1.24572703 6.02093741 -1 1 C-0.67 0.67 -0.34 0.34 0 0 Z " fill="#8A5D3E" transform="translate(243,171)"/>
<path d="M0 0 C2.31 0 4.62 0 7 0 C7.33 1.98 7.66 3.96 8 6 C5.66705225 6.04241723 3.33297433 6.04092937 1 6 C0 5 0 5 -0.0625 2.4375 C-0.041875 1.633125 -0.02125 0.82875 0 0 Z " fill="#995D38" transform="translate(367,295)"/>
<path d="M0 0 C3.37329915 1.39584792 5.04232662 2.92365611 7 6 C8.63547495 10.90642484 8.57522753 14.68177024 6.5 19.4375 C6.005 20.283125 5.51 21.12875 5 22 C4.67 20.68 4.34 19.36 4 18 C4.66 18 5.32 18 6 18 C5.84856432 10.38691515 5.03856421 5.81372794 0 0 Z " fill="#845C41" transform="translate(352,296)"/>
<path d="M0 0 C2.31 0 4.62 0 7 0 C7.33 0.66 7.66 1.32 8 2 C6.35 1.67 4.7 1.34 3 1 C3 1.99 3 2.98 3 4 C3.66 4.33 4.32 4.66 5 5 C5 5.66 5 6.32 5 7 C5.66 7.33 6.32 7.66 7 8 C6.01 8 5.02 8 4 8 C4.350625 8.598125 4.70125 9.19625 5.0625 9.8125 C6 12 6 12 5 15 C4.16013916 13.06532058 3.32831973 11.12714871 2.5 9.1875 C2.0359375 8.10855469 1.571875 7.02960938 1.09375 5.91796875 C0 3 0 3 0 0 Z " fill="#896245" transform="translate(232,294)"/>
<path d="M0 0 C0.66 0.66 1.32 1.32 2 2 C1.7794503 6.96236824 0.1286248 9.28475805 -3 13 C-3.77833534 15.18214568 -3.77833534 15.18214568 -4 17 C-4.66 17 -5.32 17 -6 17 C-5.34496718 12.94180817 -4.05440879 9.46028718 -2.4375 5.6875 C-1.75494141 4.08455078 -1.75494141 4.08455078 -1.05859375 2.44921875 C-0.53458984 1.23685547 -0.53458984 1.23685547 0 0 Z " fill="#875E43" transform="translate(268,305)"/>
<path d="M0 0 C0.33 0 0.66 0 1 0 C2.28571429 8.57142857 2.28571429 8.57142857 1 12 C0.01 11.67 -0.98 11.34 -2 11 C-2.05399736 9.54207116 -2.09279177 8.08357288 -2.125 6.625 C-2.15980469 5.40683594 -2.15980469 5.40683594 -2.1953125 4.1640625 C-2 2 -2 2 0 0 Z " fill="#9A6036" transform="translate(225,303)"/>
<path d="M0 0 C2.31 0 4.62 0 7 0 C7.18451025 10.55808656 7.18451025 10.55808656 6 15 C5.67 15 5.34 15 5 15 C5 10.71 5 6.42 5 2 C3.35 1.67 1.7 1.34 0 1 C0 0.67 0 0.34 0 0 Z " fill="#8B6246" transform="translate(306,198)"/>
<path d="M0 0 C1.2065625 0.0309375 1.2065625 0.0309375 2.4375 0.0625 C1.4475 1.5475 1.4475 1.5475 0.4375 3.0625 C-0.2225 3.0625 -0.8825 3.0625 -1.5625 3.0625 C-1.5625 4.0525 -1.5625 5.0425 -1.5625 6.0625 C0.4175 6.7225 2.3975 7.3825 4.4375 8.0625 C4.1075 8.7225 3.7775 9.3825 3.4375 10.0625 C0.7975 8.4125 -1.8425 6.7625 -4.5625 5.0625 C-3.31710123 0.08090491 -3.31710123 0.08090491 0 0 Z " fill="#845F46" transform="translate(225.5625,148.9375)"/>
<path d="M0 0 C1.134375 0.020625 2.26875 0.04125 3.4375 0.0625 C3.7675 1.3825 4.0975 2.7025 4.4375 4.0625 C2.1275 3.7325 -0.1825 3.4025 -2.5625 3.0625 C-2.8925 4.3825 -3.2225 5.7025 -3.5625 7.0625 C-4.5625 6.0625 -4.5625 6.0625 -4.6875 3.5625 C-4.4904197 -0.37910609 -4.10054684 0.07193942 0 0 Z " fill="#93674B" transform="translate(193.5625,333.9375)"/>
<path d="M0 0 C0.66 0 1.32 0 2 0 C0.25192871 5.46737191 -1.65794081 10.75824848 -4 16 C-5.64426374 11.06720879 -3.52845018 7.11787539 -1.375 2.5625 C-0.92125 1.716875 -0.4675 0.87125 0 0 Z " fill="#8A6246" transform="translate(255,302)"/>
<path d="M0 0 C1.65 0 3.3 0 5 0 C4.67 1.32 4.34 2.64 4 4 C3.01 4 2.02 4 1 4 C1 5.32 1 6.64 1 8 C0.01 7.67 -0.98 7.34 -2 7 C-1.125 2.25 -1.125 2.25 0 0 Z " fill="#9B5F35" transform="translate(253,296)"/>
<path d="M0 0 C0.33 0 0.66 0 1 0 C1.6727248 8.70057407 0.61280192 14.55361975 -4 22 C-4.33 22 -4.66 22 -5 22 C-5.1875 19.6875 -5.1875 19.6875 -5 17 C-4.525625 16.5978125 -4.05125 16.195625 -3.5625 15.78125 C-1.18131517 13.06669929 -1.2337715 10.3446995 -0.8125 6.8125 C-0.65394531 5.54019531 -0.49539063 4.26789063 -0.33203125 2.95703125 C-0.22246094 1.98121094 -0.11289062 1.00539062 0 0 Z " fill="#875F46" transform="translate(258,167)"/>
<path d="M0 0 C4.91605319 1.82076044 7.66368285 5.8740409 10.375 10.1875 C11 12 11 12 10 15 C10 14.34 10 13.68 10 13 C9.34 13 8.68 13 8 13 C7.54625 11.865625 7.0925 10.73125 6.625 9.5625 C5.42904194 5.95278308 5.42904194 5.95278308 3 5 C3 4.34 3 3.68 3 3 C2.01 3 1.02 3 0 3 C0 2.01 0 1.02 0 0 Z " fill="#865E42" transform="translate(247,152)"/>
<path d="M0 0 C2 2 2 2 2.125 4.625 C2.08375 5.40875 2.0425 6.1925 2 7 C1.67 6.01 1.34 5.02 1 4 C-2.28696233 3.20046862 -3.71023192 2.90341064 -7 4 C-7.33 3.01 -7.66 2.02 -8 1 C-5.23749964 -0.38125018 -3.05268901 -0.19079306 0 0 Z " fill="#996249" transform="translate(211,334)"/>
<path d="M0 0 C3 3.75 3 3.75 3 6 C3.99 6.33 4.98 6.66 6 7 C6 8.32 6 9.64 6 11 C7.65 11.33 9.3 11.66 11 12 C11 12.33 11 12.66 11 13 C9.02 13 7.04 13 5 13 C4.15930585 11.39967863 3.32768495 9.79458829 2.5 8.1875 C1.80390625 6.84751953 1.80390625 6.84751953 1.09375 5.48046875 C0 3 0 3 0 0 Z " fill="#855B3E" transform="translate(238,309)"/>
<path d="M0 0 C2.0625 0.4375 2.0625 0.4375 4 1 C4 2.32 4 3.64 4 5 C0.98968256 5.93423645 0.13349732 6.04449911 -3 5 C-1.125 1.125 -1.125 1.125 0 0 Z " fill="#9B5C36" transform="translate(208,296)"/>
<path d="M0 0 C0.94875 0.350625 1.8975 0.70125 2.875 1.0625 C2.545 2.0525 2.215 3.0425 1.875 4.0625 C-0.435 3.7325 -2.745 3.4025 -5.125 3.0625 C-5.125 2.0725 -5.125 1.0825 -5.125 0.0625 C-3.125 -0.9375 -3.125 -0.9375 0 0 Z " fill="#996037" transform="translate(229.125,151.9375)"/>
<path d="M0 0 C6.16456476 0.37742233 9.17375515 2.15870308 14 6 C13.01 6.495 13.01 6.495 12 7 C11.29875 6.566875 10.5975 6.13375 9.875 5.6875 C6.28072562 3.57781721 3.06163066 2.89493557 -1 2 C-0.67 1.34 -0.34 0.68 0 0 Z " fill="#866046" transform="translate(254,149)"/>
<path d="M0 0 C0.99 0.495 0.99 0.495 2 1 C2.33 1.99 2.66 2.98 3 4 C5.50447516 5.21869929 5.50447516 5.21869929 8 6 C7.01 6.66 6.02 7.32 5 8 C2.3125 7.125 2.3125 7.125 0 6 C0 4.02 0 2.04 0 0 Z " fill="#925F44" transform="translate(290,338)"/>
<path d="M0 0 C1.2065625 0.0309375 1.2065625 0.0309375 2.4375 0.0625 C2.7675 1.0525 3.0975 2.0425 3.4375 3.0625 C1.7875 2.7325 0.1375 2.4025 -1.5625 2.0625 C-1.8925 3.3825 -2.2225 4.7025 -2.5625 6.0625 C-2.94468767 4.40635343 -3.27645102 2.73792976 -3.5625 1.0625 C-2.5625 0.0625 -2.5625 0.0625 0 0 Z " fill="#8E6A4F" transform="translate(266.5625,333.9375)"/>
<path d="M0 0 C3.63 0.33 7.26 0.66 11 1 C11 1.33 11 1.66 11 2 C8.03 2 5.06 2 2 2 C1.67 3.65 1.34 5.3 1 7 C-0.0625 5.1875 -0.0625 5.1875 -1 3 C-0.67 2.01 -0.34 1.02 0 0 Z " fill="#8D674D" transform="translate(269,315)"/>
<path d="M0 0 C1.2065625 0.0309375 1.2065625 0.0309375 2.4375 0.0625 C1.1175 0.3925 -0.2025 0.7225 -1.5625 1.0625 C-1.5625 1.7225 -1.5625 2.3825 -1.5625 3.0625 C-0.2425 3.0625 1.0775 3.0625 2.4375 3.0625 C2.4375 3.7225 2.4375 4.3825 2.4375 5.0625 C0.7875 5.0625 -0.8625 5.0625 -2.5625 5.0625 C-3.125 3.125 -3.125 3.125 -3.5625 1.0625 C-2.5625 0.0625 -2.5625 0.0625 0 0 Z " fill="#936240" transform="translate(247.5625,334.9375)"/>
<path d="M0 0 C1.32 0.33 2.64 0.66 4 1 C4.33 2.65 4.66 4.3 5 6 C2.03824877 5.38722388 0.61941217 4.74627478 -2 3 C-1.34 3 -0.68 3 0 3 C0 2.01 0 1.02 0 0 Z " fill="#9E5C34" transform="translate(186,315)"/>
<path d="M0 0 C0.66 0.33 1.32 0.66 2 1 C2 2.65 2 4.3 2 6 C0.68 6.33 -0.64 6.66 -2 7 C-1.42415568 4.61435923 -0.77772405 2.33317216 0 0 Z " fill="#89644E" transform="translate(310,334)"/>
<path d="M0 0 C0.99 0 1.98 0 3 0 C1.9024777 2.99324263 1.32317108 3.84610901 -1.625 5.25 C-2.40875 5.4975 -3.1925 5.745 -4 6 C-1.125 1.125 -1.125 1.125 0 0 Z " fill="#8D5E44" transform="translate(329,225)"/>
<path d="M0 0 C0.66 0 1.32 0 2 0 C4.29648649 2.5614657 5 3.47967572 5 7 C2.525 6.01 2.525 6.01 0 5 C0 3.35 0 1.7 0 0 Z " fill="#9B613A" transform="translate(232,155)"/>
<path d="M0 0 C2.64 0 5.28 0 8 0 C7.01 0.33 6.02 0.66 5 1 C4.26676204 3.01508358 4.26676204 3.01508358 4 5 C2.68 3.35 1.36 1.7 0 0 Z " fill="#9E5A38" transform="translate(215,296)"/>
<path d="M0 0 C1.65 0 3.3 0 5 0 C5.33 0.66 5.66 1.32 6 2 C5.67 2.66 5.34 3.32 5 4 C2.4375 4.625 2.4375 4.625 0 5 C0.66 3.68 1.32 2.36 2 1 C1.34 0.67 0.68 0.34 0 0 Z " fill="#96633F" transform="translate(210,296)"/>
<path d="M0 0 C2.31 0.33 4.62 0.66 7 1 C7 2.32 7 3.64 7 5 C3.34683329 3.75023244 2.21934164 3.32901247 0 0 Z " fill="#8A6142" transform="translate(204,251)"/>
</svg>
